<mxfile host="Electron" modified="2024-07-26T21:17:46.930Z" agent="Mozilla/5.0 (Windows NT 10.0; Win64; x64) AppleWebKit/537.36 (KHTML, like Gecko) draw.io/24.5.3 Chrome/124.0.6367.207 Electron/30.0.6 Safari/537.36" etag="CPzaJ39DkbazPHp8oTW5" version="24.5.3" type="device">
  <diagram id="prtHgNgQTEPvFCAcTncT" name="Page-1">
    <mxGraphModel dx="1098" dy="828" grid="1" gridSize="10" guides="1" tooltips="1" connect="1" arrows="1" fold="1" page="1" pageScale="1" pageWidth="827" pageHeight="1169" math="0" shadow="0">
      <root>
        <mxCell id="0" />
        <mxCell id="1" parent="0" />
        <mxCell id="aTURooDjBuoHIjvPpmW2-4" value="Executar tarefa" style="shape=umlFrame;whiteSpace=wrap;html=1;pointerEvents=0;recursiveResize=0;container=1;collapsible=0;width=160;" vertex="1" parent="1">
          <mxGeometry x="20" y="40" width="640" height="1110" as="geometry" />
        </mxCell>
        <mxCell id="aTURooDjBuoHIjvPpmW2-31" value="usuário" style="swimlane;whiteSpace=wrap;html=1;" vertex="1" parent="aTURooDjBuoHIjvPpmW2-4">
          <mxGeometry x="30" y="40" width="200" height="1030" as="geometry" />
        </mxCell>
        <mxCell id="aTURooDjBuoHIjvPpmW2-114" value="" style="edgeStyle=orthogonalEdgeStyle;rounded=0;orthogonalLoop=1;jettySize=auto;html=1;" edge="1" parent="aTURooDjBuoHIjvPpmW2-31" source="aTURooDjBuoHIjvPpmW2-33" target="aTURooDjBuoHIjvPpmW2-113">
          <mxGeometry relative="1" as="geometry" />
        </mxCell>
        <mxCell id="aTURooDjBuoHIjvPpmW2-33" value="" style="ellipse;fillColor=strokeColor;html=1;" vertex="1" parent="aTURooDjBuoHIjvPpmW2-31">
          <mxGeometry x="85" y="30" width="30" height="30" as="geometry" />
        </mxCell>
        <mxCell id="aTURooDjBuoHIjvPpmW2-116" value="" style="edgeStyle=orthogonalEdgeStyle;rounded=0;orthogonalLoop=1;jettySize=auto;html=1;" edge="1" parent="aTURooDjBuoHIjvPpmW2-31" source="aTURooDjBuoHIjvPpmW2-113" target="aTURooDjBuoHIjvPpmW2-115">
          <mxGeometry relative="1" as="geometry" />
        </mxCell>
        <mxCell id="aTURooDjBuoHIjvPpmW2-113" value="selecionar tarefa&lt;div&gt;&lt;br&gt;&lt;/div&gt;" style="html=1;align=center;verticalAlign=top;rounded=1;absoluteArcSize=1;arcSize=10;dashed=0;whiteSpace=wrap;" vertex="1" parent="aTURooDjBuoHIjvPpmW2-31">
          <mxGeometry x="30" y="110" width="140" height="30" as="geometry" />
        </mxCell>
        <mxCell id="aTURooDjBuoHIjvPpmW2-115" value="&lt;div&gt;clica no botão play&lt;/div&gt;" style="html=1;align=center;verticalAlign=top;rounded=1;absoluteArcSize=1;arcSize=10;dashed=0;whiteSpace=wrap;" vertex="1" parent="aTURooDjBuoHIjvPpmW2-31">
          <mxGeometry x="30" y="180" width="140" height="30" as="geometry" />
        </mxCell>
        <mxCell id="aTURooDjBuoHIjvPpmW2-119" value="&lt;div&gt;clicar no botão de iniciar&lt;/div&gt;" style="html=1;align=center;verticalAlign=top;rounded=1;absoluteArcSize=1;arcSize=10;dashed=0;whiteSpace=wrap;" vertex="1" parent="aTURooDjBuoHIjvPpmW2-31">
          <mxGeometry x="20" y="290" width="140" height="30" as="geometry" />
        </mxCell>
        <mxCell id="aTURooDjBuoHIjvPpmW2-129" value="clicar no botão pause" style="html=1;align=center;verticalAlign=top;rounded=1;absoluteArcSize=1;arcSize=10;dashed=0;whiteSpace=wrap;" vertex="1" parent="aTURooDjBuoHIjvPpmW2-31">
          <mxGeometry x="20" y="480" width="140" height="30" as="geometry" />
        </mxCell>
        <mxCell id="aTURooDjBuoHIjvPpmW2-133" value="clicar em despause" style="html=1;align=center;verticalAlign=top;rounded=1;absoluteArcSize=1;arcSize=10;dashed=0;whiteSpace=wrap;" vertex="1" parent="aTURooDjBuoHIjvPpmW2-31">
          <mxGeometry x="20" y="630" width="140" height="30" as="geometry" />
        </mxCell>
        <mxCell id="aTURooDjBuoHIjvPpmW2-63" value="aplicação" style="swimlane;whiteSpace=wrap;html=1;" vertex="1" parent="aTURooDjBuoHIjvPpmW2-4">
          <mxGeometry x="230" y="40" width="220" height="1030" as="geometry" />
        </mxCell>
        <mxCell id="aTURooDjBuoHIjvPpmW2-117" value="&lt;div&gt;exibe cronômetro&lt;/div&gt;" style="html=1;align=center;verticalAlign=top;rounded=1;absoluteArcSize=1;arcSize=10;dashed=0;whiteSpace=wrap;" vertex="1" parent="aTURooDjBuoHIjvPpmW2-63">
          <mxGeometry x="40" y="180" width="140" height="30" as="geometry" />
        </mxCell>
        <mxCell id="aTURooDjBuoHIjvPpmW2-124" value="iniciar countdown" style="html=1;align=center;verticalAlign=top;rounded=1;absoluteArcSize=1;arcSize=10;dashed=0;whiteSpace=wrap;" vertex="1" parent="aTURooDjBuoHIjvPpmW2-63">
          <mxGeometry x="40" y="390" width="140" height="30" as="geometry" />
        </mxCell>
        <mxCell id="aTURooDjBuoHIjvPpmW2-131" value="pausar countdown" style="html=1;align=center;verticalAlign=top;rounded=1;absoluteArcSize=1;arcSize=10;dashed=0;whiteSpace=wrap;" vertex="1" parent="aTURooDjBuoHIjvPpmW2-63">
          <mxGeometry x="30" y="570" width="140" height="30" as="geometry" />
        </mxCell>
        <mxCell id="aTURooDjBuoHIjvPpmW2-138" value="" style="edgeStyle=orthogonalEdgeStyle;rounded=0;orthogonalLoop=1;jettySize=auto;html=1;" edge="1" parent="aTURooDjBuoHIjvPpmW2-63" source="aTURooDjBuoHIjvPpmW2-135" target="aTURooDjBuoHIjvPpmW2-137">
          <mxGeometry relative="1" as="geometry" />
        </mxCell>
        <mxCell id="aTURooDjBuoHIjvPpmW2-135" value="despausar countdown" style="html=1;align=center;verticalAlign=top;rounded=1;absoluteArcSize=1;arcSize=10;dashed=0;whiteSpace=wrap;" vertex="1" parent="aTURooDjBuoHIjvPpmW2-63">
          <mxGeometry x="40" y="690" width="140" height="30" as="geometry" />
        </mxCell>
        <mxCell id="aTURooDjBuoHIjvPpmW2-140" value="" style="edgeStyle=orthogonalEdgeStyle;rounded=0;orthogonalLoop=1;jettySize=auto;html=1;" edge="1" parent="aTURooDjBuoHIjvPpmW2-63" source="aTURooDjBuoHIjvPpmW2-137" target="aTURooDjBuoHIjvPpmW2-139">
          <mxGeometry relative="1" as="geometry" />
        </mxCell>
        <mxCell id="aTURooDjBuoHIjvPpmW2-137" value="countdown chega à 00:00" style="html=1;align=center;verticalAlign=top;rounded=1;absoluteArcSize=1;arcSize=10;dashed=0;whiteSpace=wrap;" vertex="1" parent="aTURooDjBuoHIjvPpmW2-63">
          <mxGeometry x="40" y="770" width="140" height="30" as="geometry" />
        </mxCell>
        <mxCell id="aTURooDjBuoHIjvPpmW2-139" value="exibir mensagem de exito" style="html=1;align=center;verticalAlign=top;rounded=1;absoluteArcSize=1;arcSize=10;dashed=0;whiteSpace=wrap;" vertex="1" parent="aTURooDjBuoHIjvPpmW2-63">
          <mxGeometry x="40" y="840" width="140" height="30" as="geometry" />
        </mxCell>
        <mxCell id="aTURooDjBuoHIjvPpmW2-118" value="" style="edgeStyle=orthogonalEdgeStyle;rounded=0;orthogonalLoop=1;jettySize=auto;html=1;" edge="1" parent="aTURooDjBuoHIjvPpmW2-4" source="aTURooDjBuoHIjvPpmW2-115" target="aTURooDjBuoHIjvPpmW2-117">
          <mxGeometry relative="1" as="geometry" />
        </mxCell>
        <mxCell id="aTURooDjBuoHIjvPpmW2-121" style="edgeStyle=orthogonalEdgeStyle;rounded=0;orthogonalLoop=1;jettySize=auto;html=1;" edge="1" parent="aTURooDjBuoHIjvPpmW2-4" source="aTURooDjBuoHIjvPpmW2-117" target="aTURooDjBuoHIjvPpmW2-119">
          <mxGeometry relative="1" as="geometry">
            <Array as="points">
              <mxPoint x="210" y="235" />
              <mxPoint x="210" y="345" />
            </Array>
          </mxGeometry>
        </mxCell>
        <mxCell id="aTURooDjBuoHIjvPpmW2-125" value="" style="edgeStyle=orthogonalEdgeStyle;rounded=0;orthogonalLoop=1;jettySize=auto;html=1;" edge="1" parent="aTURooDjBuoHIjvPpmW2-4" source="aTURooDjBuoHIjvPpmW2-119" target="aTURooDjBuoHIjvPpmW2-124">
          <mxGeometry relative="1" as="geometry">
            <Array as="points">
              <mxPoint x="120" y="400" />
              <mxPoint x="320" y="400" />
            </Array>
          </mxGeometry>
        </mxCell>
        <mxCell id="aTURooDjBuoHIjvPpmW2-130" value="" style="edgeStyle=orthogonalEdgeStyle;rounded=0;orthogonalLoop=1;jettySize=auto;html=1;" edge="1" parent="aTURooDjBuoHIjvPpmW2-4" source="aTURooDjBuoHIjvPpmW2-124" target="aTURooDjBuoHIjvPpmW2-129">
          <mxGeometry relative="1" as="geometry">
            <Array as="points">
              <mxPoint x="330" y="535" />
            </Array>
          </mxGeometry>
        </mxCell>
        <mxCell id="aTURooDjBuoHIjvPpmW2-132" value="" style="edgeStyle=orthogonalEdgeStyle;rounded=0;orthogonalLoop=1;jettySize=auto;html=1;" edge="1" parent="aTURooDjBuoHIjvPpmW2-4" source="aTURooDjBuoHIjvPpmW2-129" target="aTURooDjBuoHIjvPpmW2-131">
          <mxGeometry relative="1" as="geometry">
            <Array as="points">
              <mxPoint x="120" y="570" />
              <mxPoint x="324" y="570" />
            </Array>
          </mxGeometry>
        </mxCell>
        <mxCell id="aTURooDjBuoHIjvPpmW2-134" value="" style="edgeStyle=orthogonalEdgeStyle;rounded=0;orthogonalLoop=1;jettySize=auto;html=1;" edge="1" parent="aTURooDjBuoHIjvPpmW2-4" source="aTURooDjBuoHIjvPpmW2-131" target="aTURooDjBuoHIjvPpmW2-133">
          <mxGeometry relative="1" as="geometry" />
        </mxCell>
        <mxCell id="aTURooDjBuoHIjvPpmW2-136" value="" style="edgeStyle=orthogonalEdgeStyle;rounded=0;orthogonalLoop=1;jettySize=auto;html=1;" edge="1" parent="aTURooDjBuoHIjvPpmW2-4" source="aTURooDjBuoHIjvPpmW2-133" target="aTURooDjBuoHIjvPpmW2-135">
          <mxGeometry relative="1" as="geometry" />
        </mxCell>
      </root>
    </mxGraphModel>
  </diagram>
</mxfile>
